<?xml version="1.0" standalone="no"?>
<!DOCTYPE svg PUBLIC "-//W3C//DTD SVG 20010904//EN"
 "http://www.w3.org/TR/2001/REC-SVG-20010904/DTD/svg10.dtd">
<svg version="1.0" xmlns="http://www.w3.org/2000/svg"
 width="250.000000pt" height="181.000000pt" viewBox="0 0 250.000000 181.000000"
 preserveAspectRatio="xMidYMid meet">

<g transform="translate(0.000000,181.000000) scale(0.100000,-0.100000)"
fill="#FFFFFF" stroke="none">
<path d="M1741 1508 c-28 -46 -54 -89 -59 -96 -7 -10 -27 11 -73 77 -35 50
-66 90 -69 91 -3 0 -11 -48 -18 -107 -7 -59 -14 -109 -16 -110 -2 -2 -43 24
-92 57 -49 33 -90 57 -92 52 -1 -5 8 -55 21 -111 13 -55 23 -101 22 -101 -2 0
-47 9 -100 20 -53 11 -102 20 -107 20 -5 0 4 -18 21 -39 17 -21 31 -41 31 -44
0 -3 -21 1 -47 9 -59 18 -193 18 -260 0 -28 -8 -72 -24 -98 -37 -63 -32 -167
-119 -203 -171 -28 -41 -34 -44 -101 -56 -86 -15 -157 -49 -218 -105 -59 -54
-91 -121 -105 -216 -19 -132 19 -240 120 -338 103 -99 224 -123 388 -77 50 13
53 13 95 -10 161 -90 334 -95 505 -15 33 16 70 39 82 52 l22 23 72 -35 c66
-33 79 -36 158 -36 79 0 92 3 159 36 71 35 74 36 104 21 48 -24 130 -27 182
-7 56 21 109 81 131 148 14 42 15 58 5 103 -7 29 -23 69 -37 89 -21 31 -22 36
-7 31 10 -2 33 -7 51 -11 l32 -7 -65 92 c-35 51 -63 96 -60 99 2 4 52 19 110
32 58 13 105 27 105 30 0 4 -8 10 -17 13 -28 11 -173 99 -173 106 0 3 39 34
86 69 47 35 82 67 77 71 -4 4 -48 13 -98 20 -49 7 -95 15 -102 19 -9 4 4 35
42 101 29 52 53 95 52 96 -1 1 -47 -13 -102 -32 -55 -18 -103 -33 -106 -33 -3
-1 5 45 17 101 13 56 22 104 20 106 -2 2 -43 -25 -90 -59 -48 -34 -89 -60 -91
-57 -2 2 -14 49 -25 103 -12 55 -23 101 -25 103 -2 2 -26 -34 -54 -80z m-142
-28 c28 -38 51 -74 51 -80 0 -5 -11 -10 -24 -10 -13 0 -43 -7 -66 -15 l-42
-15 5 33 c4 17 9 60 13 95 4 34 8 62 9 62 2 0 26 -31 54 -70z m212 -21 l17
-81 -31 6 c-18 4 -48 9 -69 12 l-36 6 46 74 c26 40 48 71 51 68 2 -2 12 -40
22 -85z m192 -21 c-15 -78 -28 -129 -33 -130 -3 -1 -29 12 -58 29 l-53 30 68
51 c37 28 71 51 75 51 4 1 5 -14 1 -31z m-557 -56 l47 -34 -34 -20 c-19 -11
-44 -29 -56 -40 l-22 -20 -10 38 c-14 52 -30 127 -31 137 0 10 30 -8 106 -61z
m378 -22 c147 -46 258 -175 287 -334 15 -80 1 -172 -37 -250 -41 -84 -46 -88
-93 -80 -35 6 -45 13 -61 44 -47 92 -168 162 -293 168 l-78 4 -21 41 c-24 48
-127 159 -175 188 -18 11 -33 24 -33 29 0 17 98 115 146 146 102 66 234 82
358 44z m328 -62 c-11 -18 -32 -55 -47 -81 l-28 -48 -16 25 c-9 13 -26 38 -39
55 -18 23 -20 32 -10 36 40 15 135 43 146 44 10 1 8 -8 -6 -31z m-864 -39 c34
-6 62 -14 62 -16 0 -2 -10 -19 -23 -38 -22 -32 -24 -33 -53 -20 -27 11 -52 37
-79 84 -5 10 -3 12 11 8 11 -3 47 -11 82 -18z m-112 -95 c146 -49 252 -135
311 -253 l33 -64 82 -2 c131 -2 206 -45 274 -156 32 -51 41 -59 68 -59 158 0
252 -160 159 -271 -52 -62 -125 -74 -208 -35 l-51 23 -34 -29 c-72 -59 -190
-83 -285 -57 -22 6 -61 26 -87 44 l-46 34 -57 -44 c-81 -64 -151 -88 -265 -93
-139 -6 -226 18 -298 81 -22 20 -23 20 -80 2 -31 -10 -94 -20 -139 -23 -75 -4
-88 -2 -137 22 -69 34 -148 119 -170 182 -10 29 -16 80 -16 129 0 71 4 90 30
143 54 107 153 172 276 180 l71 4 43 57 c24 31 67 77 97 102 111 96 289 131
429 83z m1021 -36 c46 -7 83 -15 83 -18 0 -4 -32 -30 -72 -59 l-72 -52 -16 58
c-9 32 -19 64 -24 71 -9 15 -3 15 101 0z m21 -214 c42 -26 78 -48 80 -49 2 -2
-38 -13 -88 -25 -51 -11 -94 -19 -96 -17 -2 2 1 19 6 38 6 18 10 49 10 66 0
18 3 33 6 33 3 0 40 -21 82 -46z m-60 -210 l53 -76 -38 6 c-30 6 -113 38 -131
51 -4 3 52 94 58 95 3 0 29 -35 58 -76z"/>
</g>
</svg>
